<svg width="62" height="64" viewBox="0 0 62 64" fill="none" xmlns="http://www.w3.org/2000/svg">
<path d="M55.5333 0H6.46667C2.93347 0.00346667 0.0701323 2.8668 0.0666656 6.4V27.3344V27.344V39.4667V42.6667C0.0701323 46.1999 2.93347 49.0632 6.46667 49.0667H19.6741L15.4075 57.6H9.66667C7.89933 57.6 6.46667 59.0327 6.46667 60.8C6.46667 62.5673 7.89933 64 9.66667 64H52.3333C54.1007 64 55.5333 62.5673 55.5333 60.8C55.5333 59.0327 54.1007 57.6 52.3333 57.6H46.5925L42.3259 49.0667H55.5333C59.0665 49.0632 61.9299 46.1999 61.9333 42.6667V6.4C61.9299 2.8668 59.0665 0.00346667 55.5333 0ZM2.2 15.008L4.62453 17.8944C4.8272 18.1359 5.1264 18.2752 5.4416 18.2752H8.70667C9.02187 18.2752 9.32107 18.1359 9.52373 17.8944L11.9493 15.008L14.3429 15.7856L14.6075 19.5435C14.6293 19.8577 14.7891 20.1463 15.0437 20.3317L17.6859 22.2517C17.9415 22.4363 18.2652 22.4991 18.5712 22.4235L22.2331 21.5136L23.7136 23.5499L21.7179 26.7499C21.5525 27.0181 21.5143 27.3457 21.6133 27.6448L22.6235 30.7499C22.7207 31.0493 22.9451 31.2907 23.2368 31.4091L26.7333 32.8267V35.344L23.2347 36.7616C22.9423 36.8795 22.7175 37.1215 22.6213 37.4219L22.3013 38.4H16.1563C18.5467 33.3952 16.4272 27.4001 11.4224 25.0097C8.4828 23.6057 5.04467 23.7148 2.2 25.3024V15.008ZM2.2 27.84C5.65013 25.1484 10.6291 25.7633 13.3205 29.2136C15.3987 31.8773 15.5591 35.5659 13.72 38.4H2.2V27.84ZM52.3333 59.7333C52.9224 59.7333 53.4 60.2109 53.4 60.8C53.4 61.3891 52.9224 61.8667 52.3333 61.8667H9.66667C9.0776 61.8667 8.6 61.3891 8.6 60.8C8.6 60.2109 9.0776 59.7333 9.66667 59.7333H52.3333ZM44.2075 57.6H17.7925L22.0592 49.0667H39.9408L44.2075 57.6ZM59.8 42.6667C59.8 45.0231 57.8897 46.9333 55.5333 46.9333H6.46667C4.11027 46.9333 2.2 45.0231 2.2 42.6667V40.5333H14.2768H14.2864H59.8V42.6667ZM59.8 38.4H24.872L28.2011 37.0507C28.6032 36.8875 28.8664 36.4969 28.8667 36.0629V32.1067C28.8668 31.6723 28.6036 31.2812 28.2011 31.1179L24.4933 29.6181L23.7915 27.4581L25.9056 24.0661C26.1349 23.6976 26.118 23.2269 25.8629 22.8757L23.5376 19.6757C23.2823 19.3241 22.8393 19.1625 22.4176 19.2672L18.5392 20.2272L16.7067 18.896L16.4261 14.9173C16.3956 14.4836 16.1048 14.1117 15.6912 13.9776L11.9312 12.7552C11.5175 12.6235 11.0652 12.7535 10.7845 13.0848L8.21707 16.1408H5.94187L3.37333 13.0848C3.09253 12.7531 2.6396 12.6229 2.2256 12.7552L2.2 12.7648V6.4C2.2 4.0436 4.11027 2.13333 6.46667 2.13333H55.5333C57.8897 2.13333 59.8 4.0436 59.8 6.4V38.4Z" fill="url(#paint0_linear_8_82)"/>
<defs>
<linearGradient id="paint0_linear_8_82" x1="31" y1="0" x2="31" y2="64" gradientUnits="userSpaceOnUse">
<stop offset="0.854167" stop-color="#2351DC"/>
<stop offset="1" stop-color="#2351DC" stop-opacity="0"/>
</linearGradient>
</defs>
</svg>
